<?xml version="1.0" encoding="UTF-8" standalone="no"?>
<!-- Created with Inkscape (http://www.inkscape.org/) -->

<svg
   version="1.1"
   id="svg2"
   xml:space="preserve"
   width="377.95966"
   height="218.24004"
   viewBox="0 0 377.95966 218.24004"
   xmlns="http://www.w3.org/2000/svg"
   xmlns:svg="http://www.w3.org/2000/svg"><defs
     id="defs6" /><g
     id="g8"
     transform="scale(1.3333333)"><g
       id="g10"><g
         id="g12"><path
           d="m 207.516,96.008 c 0,12.293 -29.286,22.262 -65.45,22.285 -36.16,0.019 -65.543,-9.922 -65.66,-22.211"
           style="fill:none;stroke:#800000;stroke-width:4.25197;stroke-linecap:butt;stroke-linejoin:miter;stroke-miterlimit:4;stroke-dasharray:none;stroke-opacity:1"
           id="path14" /></g><g
         id="g16"
         transform="scale(1,-1)"><path
           d="m 207.516,-97.355 c 0,12.293 -29.286,22.261 -65.45,22.281 -36.16,0.019 -65.543,-9.918 -65.66,-22.211"
           style="fill:none;stroke:#008000;stroke-width:4.25197;stroke-linecap:butt;stroke-linejoin:miter;stroke-miterlimit:4;stroke-dasharray:none;stroke-opacity:1"
           id="path18" /></g><g
         id="g20"><path
           d="m 208.801,95.223 c 0,36.922 -29.852,66.89 -66.774,67.039 -36.918,0.148 -67.007,-29.582 -67.304,-66.5"
           style="fill:none;stroke:#000000;stroke-width:2.83465;stroke-linecap:butt;stroke-linejoin:miter;stroke-miterlimit:4;stroke-dasharray:none;stroke-opacity:1"
           id="path22" /></g><g
         id="g24"
         transform="scale(1,-1)"><path
           d="m 208.801,-96.793 c 0,36.918 -29.852,66.891 -66.774,67.039 -36.918,0.149 -67.007,-29.582 -67.304,-66.5"
           style="fill:none;stroke:#808000;stroke-width:2.83465;stroke-linecap:butt;stroke-linejoin:miter;stroke-miterlimit:4;stroke-dasharray:none;stroke-opacity:1"
           id="path26" /></g><g
         id="g28"><path
           d="M 283.469,96.008 H 208.562"
           style="fill:none;stroke:#0000ff;stroke-width:4.25197;stroke-linecap:butt;stroke-linejoin:miter;stroke-miterlimit:4;stroke-dasharray:none;stroke-opacity:1"
           id="path30" /></g><g
         id="g32"><path
           d="M 74.906,96.008 H 0"
           style="fill:none;stroke:#0000ff;stroke-width:4.25197;stroke-linecap:butt;stroke-linejoin:miter;stroke-miterlimit:4;stroke-dasharray:none;stroke-opacity:1"
           id="path34" /></g><path
         d="m 130.379,19.547 c -0.078,0.375 -0.227,0.937 -0.227,1.051 0,0.414 0.336,0.636 0.711,0.636 0.301,0 0.715,-0.187 0.903,-0.672 0,-0.039 0.3,-1.164 0.449,-1.765 l 0.523,-2.137 c 0.114,-0.562 0.266,-1.086 0.414,-1.613 0.075,-0.41 0.262,-1.125 0.301,-1.199 0.336,-0.75 1.613,-2.926 3.899,-2.926 1.089,0 1.277,0.902 1.277,1.687 0,0.602 -0.152,1.278 -0.34,1.989 l -0.676,2.777 -0.484,1.797 c -0.078,0.488 -0.301,1.312 -0.301,1.426 0,0.414 0.336,0.636 0.676,0.636 0.75,0 0.898,-0.597 1.086,-1.347 0.336,-1.352 1.238,-4.84 1.426,-5.778 0.074,-0.297 1.347,-3.187 3.972,-3.187 1.016,0 1.278,0.828 1.278,1.687 0,1.352 -1.012,4.09 -1.5,5.364 -0.188,0.562 -0.301,0.824 -0.301,1.312 0,1.125 0.824,1.949 1.949,1.949 2.25,0 3.152,-3.484 3.152,-3.672 0,-0.265 -0.226,-0.265 -0.3,-0.265 -0.227,0 -0.227,0.078 -0.34,0.453 -0.375,1.273 -1.125,2.961 -2.438,2.961 -0.41,0 -0.597,-0.227 -0.597,-0.789 0,-0.598 0.222,-1.16 0.449,-1.688 0.449,-1.273 1.461,-3.898 1.461,-5.285 0,-1.539 -0.973,-2.551 -2.774,-2.551 -1.761,0 -3,1.051 -3.898,2.325 0,-0.301 -0.078,-1.125 -0.75,-1.688 -0.602,-0.523 -1.352,-0.637 -1.953,-0.637 -2.172,0 -3.336,1.54 -3.75,2.102 -0.11,-1.391 -1.125,-2.102 -2.211,-2.102 -1.086,0 -1.539,0.938 -1.762,1.352 -0.414,0.859 -0.715,2.25 -0.715,2.324 0,0.262 0.227,0.262 0.266,0.262 0.262,0 0.262,-0.039 0.41,-0.563 0.414,-1.687 0.902,-2.851 1.762,-2.851 0.375,0 0.715,0.187 0.715,1.09 0,0.523 -0.075,0.785 -0.375,2.023 z"
         style="fill:#000000;fill-opacity:1;fill-rule:nonzero;stroke:none"
         id="path36" /><path
         d="m 157.707,8.062 h -0.562 c -0.036,0.376 -0.223,1.352 -0.45,1.5 -0.113,0.114 -1.386,0.114 -1.648,0.114 h -3.078 c 1.765,-1.539 2.363,-2.028 3.34,-2.813 1.238,-0.976 2.398,-2.027 2.398,-3.601 0,-2.024 -1.762,-3.262 -3.898,-3.262 -2.063,0 -3.489,1.461 -3.489,3 0,0.824 0.711,0.938 0.899,0.938 0.375,0 0.863,-0.301 0.863,-0.899 0,-0.301 -0.113,-0.902 -0.973,-0.902 0.524,-1.16 1.649,-1.535 2.438,-1.535 1.687,0 2.547,1.312 2.547,2.66 0,1.465 -1.047,2.59 -1.574,3.187 l -4.012,4.012 c -0.188,0.152 -0.188,0.187 -0.188,0.641 h 6.899 z"
         style="fill:#000000;fill-opacity:1;fill-rule:nonzero;stroke:none"
         id="path38" /><path
         d="m 154.859,16.234 c 0,-0.449 0,-0.449 -0.488,-0.449 -1.09,1.051 -2.59,1.051 -3.262,1.051 v 0.598 c 0.375,0 1.5,0 2.399,-0.45 v 8.512 c 0,0.563 0,0.789 -1.649,0.789 h -0.64 v 0.598 c 0.301,0 2.363,-0.074 2.965,-0.074 0.523,0 2.625,0.074 3,0.074 v -0.598 h -0.637 c -1.688,0 -1.688,-0.226 -1.688,-0.789 z"
         style="fill:#000000;fill-opacity:1;fill-rule:nonzero;stroke:none"
         id="path40" /><path
         d="m 130.375,64.039 c -0.074,0.375 -0.223,0.938 -0.223,1.047 0,0.414 0.336,0.641 0.711,0.641 0.301,0 0.715,-0.188 0.903,-0.676 0,-0.039 0.296,-1.164 0.449,-1.762 l 0.523,-2.141 c 0.114,-0.562 0.262,-1.086 0.414,-1.609 0.075,-0.414 0.262,-1.125 0.301,-1.203 0.336,-0.75 1.609,-2.922 3.899,-2.922 1.086,0 1.273,0.898 1.273,1.688 0,0.597 -0.148,1.273 -0.336,1.984 l -0.676,2.777 -0.488,1.801 c -0.074,0.484 -0.297,1.313 -0.297,1.422 0,0.414 0.336,0.641 0.672,0.641 0.75,0 0.902,-0.602 1.09,-1.352 0.336,-1.352 1.238,-4.836 1.426,-5.773 0.074,-0.301 1.347,-3.188 3.972,-3.188 1.012,0 1.278,0.824 1.278,1.688 0,1.347 -1.016,4.086 -1.5,5.359 -0.188,0.562 -0.301,0.828 -0.301,1.312 0,1.125 0.824,1.954 1.949,1.954 2.25,0 3.148,-3.489 3.148,-3.676 0,-0.262 -0.222,-0.262 -0.296,-0.262 -0.227,0 -0.227,0.074 -0.34,0.449 -0.375,1.274 -1.125,2.961 -2.438,2.961 -0.41,0 -0.597,-0.222 -0.597,-0.785 0,-0.602 0.222,-1.164 0.449,-1.687 0.449,-1.278 1.461,-3.903 1.461,-5.289 0,-1.54 -0.973,-2.551 -2.774,-2.551 -1.761,0 -3,1.051 -3.902,2.324 0,-0.297 -0.074,-1.125 -0.75,-1.688 -0.598,-0.523 -1.348,-0.636 -1.949,-0.636 -2.176,0 -3.336,1.539 -3.75,2.101 -0.114,-1.386 -1.125,-2.101 -2.211,-2.101 -1.09,0 -1.539,0.937 -1.762,1.351 -0.414,0.864 -0.715,2.25 -0.715,2.324 0,0.262 0.227,0.262 0.262,0.262 0.266,0 0.266,-0.035 0.414,-0.562 0.414,-1.688 0.898,-2.848 1.762,-2.848 0.375,0 0.715,0.188 0.715,1.086 0,0.523 -0.079,0.789 -0.375,2.023 z"
         style="fill:#000000;fill-opacity:1;fill-rule:nonzero;stroke:none"
         id="path42" /><path
         d="m 157.707,52.551 h -0.562 c -0.04,0.375 -0.227,1.351 -0.45,1.5 -0.113,0.113 -1.386,0.113 -1.652,0.113 h -3.074 c 1.761,-1.539 2.363,-2.023 3.34,-2.812 1.234,-0.977 2.398,-2.024 2.398,-3.602 0,-2.023 -1.762,-3.262 -3.898,-3.262 -2.063,0 -3.489,1.465 -3.489,3 0,0.824 0.711,0.938 0.899,0.938 0.375,0 0.863,-0.301 0.863,-0.899 0,-0.3 -0.113,-0.902 -0.977,-0.902 0.528,-1.16 1.653,-1.535 2.438,-1.535 1.687,0 2.551,1.312 2.551,2.66 0,1.465 -1.051,2.59 -1.574,3.188 l -4.012,4.015 c -0.188,0.149 -0.188,0.188 -0.188,0.637 h 6.899 z"
         style="fill:#000000;fill-opacity:1;fill-rule:nonzero;stroke:none"
         id="path44" /><path
         d="m 157.707,68.336 h -0.562 c -0.04,0.375 -0.227,1.352 -0.45,1.5 -0.113,0.113 -1.386,0.113 -1.652,0.113 h -3.074 c 1.761,-1.539 2.363,-2.023 3.34,-2.812 1.234,-0.977 2.398,-2.024 2.398,-3.602 0,-2.023 -1.762,-3.262 -3.898,-3.262 -2.063,0 -3.489,1.465 -3.489,3 0,0.825 0.711,0.938 0.899,0.938 0.375,0 0.863,-0.301 0.863,-0.899 0,-0.3 -0.113,-0.902 -0.977,-0.902 0.528,-1.16 1.653,-1.535 2.438,-1.535 1.687,0 2.551,1.313 2.551,2.66 0,1.465 -1.051,2.59 -1.574,3.188 l -4.012,4.015 c -0.188,0.149 -0.188,0.188 -0.188,0.637 h 6.899 z"
         style="fill:#000000;fill-opacity:1;fill-rule:nonzero;stroke:none"
         id="path46" /><path
         d="m 130.301,106.246 c -0.074,0.375 -0.223,0.938 -0.223,1.051 0,0.41 0.336,0.637 0.711,0.637 0.301,0 0.715,-0.188 0.902,-0.676 0,-0.039 0.297,-1.164 0.45,-1.762 l 0.523,-2.137 c 0.113,-0.562 0.262,-1.089 0.414,-1.613 0.074,-0.414 0.262,-1.125 0.301,-1.199 0.336,-0.75 1.609,-2.926 3.898,-2.926 1.086,0 1.274,0.899 1.274,1.688 0,0.601 -0.149,1.273 -0.336,1.988 l -0.676,2.773 -0.488,1.801 c -0.074,0.488 -0.297,1.313 -0.297,1.426 0,0.41 0.336,0.637 0.672,0.637 0.75,0 0.902,-0.602 1.09,-1.352 0.336,-1.348 1.238,-4.836 1.425,-5.773 0.075,-0.301 1.348,-3.188 3.973,-3.188 1.012,0 1.274,0.824 1.274,1.688 0,1.351 -1.012,4.086 -1.497,5.363 -0.187,0.562 -0.3,0.824 -0.3,1.312 0,1.125 0.824,1.95 1.949,1.95 2.25,0 3.148,-3.489 3.148,-3.676 0,-0.262 -0.222,-0.262 -0.3,-0.262 -0.223,0 -0.223,0.074 -0.336,0.449 -0.375,1.274 -1.125,2.961 -2.438,2.961 -0.414,0 -0.602,-0.222 -0.602,-0.785 0,-0.601 0.227,-1.164 0.454,-1.687 0.449,-1.278 1.461,-3.899 1.461,-5.289 0,-1.536 -0.977,-2.547 -2.774,-2.547 -1.762,0 -3,1.047 -3.902,2.324 0,-0.301 -0.074,-1.125 -0.75,-1.688 -0.598,-0.527 -1.348,-0.636 -1.949,-0.636 -2.176,0 -3.336,1.535 -3.75,2.097 -0.114,-1.386 -1.125,-2.097 -2.211,-2.097 -1.09,0 -1.539,0.937 -1.762,1.347 -0.414,0.864 -0.715,2.25 -0.715,2.325 0,0.265 0.227,0.265 0.262,0.265 0.265,0 0.265,-0.039 0.414,-0.562 0.414,-1.688 0.898,-2.852 1.762,-2.852 0.375,0 0.714,0.188 0.714,1.086 0,0.527 -0.078,0.789 -0.375,2.027 z"
         style="fill:#000000;fill-opacity:1;fill-rule:nonzero;stroke:none"
         id="path48" /><path
         d="m 157.633,94.758 h -0.563 c -0.039,0.375 -0.226,1.351 -0.449,1.5 -0.113,0.113 -1.391,0.113 -1.652,0.113 h -3.074 c 1.761,-1.535 2.363,-2.023 3.335,-2.812 1.239,-0.973 2.403,-2.024 2.403,-3.598 0,-2.027 -1.762,-3.266 -3.903,-3.266 -2.062,0 -3.484,1.465 -3.484,3 0,0.828 0.711,0.938 0.899,0.938 0.375,0 0.863,-0.297 0.863,-0.899 0,-0.3 -0.113,-0.898 -0.977,-0.898 0.528,-1.164 1.653,-1.539 2.438,-1.539 1.687,0 2.551,1.312 2.551,2.664 0,1.461 -1.051,2.586 -1.575,3.187 l -4.011,4.012 c -0.188,0.149 -0.188,0.188 -0.188,0.637 h 6.899 z"
         style="fill:#000000;fill-opacity:1;fill-rule:nonzero;stroke:none"
         id="path50" /><path
         d="m 153.77,107.996 c 1.312,0 2.25,0.899 2.25,2.699 0,2.063 -1.239,2.7 -2.176,2.7 -0.676,0 -2.176,-0.188 -2.848,-1.2 0.785,0 0.973,-0.562 0.973,-0.937 0,-0.528 -0.41,-0.903 -0.938,-0.903 -0.449,0 -0.937,0.301 -0.937,0.977 0,1.574 1.726,2.586 3.75,2.586 2.324,0 3.937,-1.574 3.937,-3.223 0,-1.312 -1.051,-2.625 -2.886,-3 1.726,-0.636 2.363,-1.875 2.363,-2.925 0,-1.313 -1.5,-2.29 -3.375,-2.29 -1.84,0 -3.262,0.903 -3.262,2.25 0,0.563 0.375,0.864 0.859,0.864 0.528,0 0.864,-0.375 0.864,-0.824 0,-0.489 -0.336,-0.864 -0.864,-0.899 0.602,-0.715 1.727,-0.902 2.364,-0.902 0.75,0 1.801,0.375 1.801,1.801 0,0.71 -0.227,1.5 -0.676,1.988 -0.524,0.637 -1.012,0.676 -1.836,0.75 -0.414,0.035 -0.449,0.035 -0.528,0.035 -0.035,0 -0.187,0.039 -0.187,0.227 0,0.226 0.152,0.226 0.453,0.226 z"
         style="fill:#000000;fill-opacity:1;fill-rule:nonzero;stroke:none"
         id="path52" /><path
         d="m 130.172,151.613 c -0.074,0.375 -0.227,0.938 -0.227,1.051 0,0.414 0.34,0.637 0.715,0.637 0.297,0 0.711,-0.188 0.899,-0.672 0,-0.039 0.3,-1.164 0.449,-1.766 l 0.527,-2.136 c 0.11,-0.563 0.262,-1.086 0.41,-1.614 0.075,-0.41 0.262,-1.125 0.301,-1.199 0.336,-0.75 1.613,-2.926 3.899,-2.926 1.089,0 1.277,0.903 1.277,1.688 0,0.601 -0.152,1.277 -0.34,1.988 l -0.672,2.777 -0.488,1.797 c -0.074,0.489 -0.301,1.313 -0.301,1.426 0,0.414 0.336,0.637 0.676,0.637 0.75,0 0.898,-0.598 1.086,-1.348 0.34,-1.351 1.238,-4.84 1.426,-5.777 0.074,-0.297 1.351,-3.188 3.976,-3.188 1.012,0 1.274,0.828 1.274,1.688 0,1.351 -1.012,4.09 -1.5,5.363 -0.188,0.563 -0.301,0.824 -0.301,1.313 0,1.125 0.824,1.949 1.949,1.949 2.25,0 3.152,-3.485 3.152,-3.672 0,-0.266 -0.226,-0.266 -0.3,-0.266 -0.227,0 -0.227,0.078 -0.336,0.453 -0.375,1.274 -1.125,2.961 -2.438,2.961 -0.414,0 -0.601,-0.226 -0.601,-0.789 0,-0.597 0.226,-1.16 0.449,-1.687 0.449,-1.274 1.465,-3.899 1.465,-5.285 0,-1.539 -0.977,-2.551 -2.778,-2.551 -1.761,0 -3,1.051 -3.898,2.324 0,-0.301 -0.074,-1.125 -0.75,-1.687 -0.602,-0.524 -1.352,-0.637 -1.949,-0.637 -2.176,0 -3.34,1.539 -3.75,2.101 -0.114,-1.39 -1.125,-2.101 -2.215,-2.101 -1.086,0 -1.535,0.937 -1.762,1.351 -0.414,0.86 -0.711,2.25 -0.711,2.325 0,0.261 0.223,0.261 0.262,0.261 0.262,0 0.262,-0.039 0.41,-0.562 0.414,-1.688 0.902,-2.852 1.766,-2.852 0.375,0 0.711,0.188 0.711,1.09 0,0.524 -0.075,0.785 -0.375,2.024 z"
         style="fill:#000000;fill-opacity:1;fill-rule:nonzero;stroke:none"
         id="path54" /><path
         d="m 157.5,140.129 h -0.562 c -0.036,0.375 -0.223,1.351 -0.45,1.5 -0.113,0.113 -1.386,0.113 -1.648,0.113 h -3.074 c 1.761,-1.539 2.359,-2.027 3.336,-2.812 1.238,-0.977 2.398,-2.028 2.398,-3.602 0,-2.023 -1.762,-3.262 -3.898,-3.262 -2.063,0 -3.489,1.461 -3.489,3 0,0.825 0.715,0.938 0.903,0.938 0.375,0 0.859,-0.301 0.859,-0.899 0,-0.3 -0.109,-0.902 -0.973,-0.902 0.524,-1.16 1.649,-1.535 2.438,-1.535 1.687,0 2.551,1.312 2.551,2.66 0,1.465 -1.051,2.59 -1.579,3.188 l -4.011,4.011 c -0.188,0.153 -0.188,0.188 -0.188,0.641 h 6.903 z"
         style="fill:#000000;fill-opacity:1;fill-rule:nonzero;stroke:none"
         id="path56" /><path
         d="m 157.914,156.215 v -0.602 h -1.875 v -7.461 c 0,-0.34 0,-0.488 -0.336,-0.488 -0.226,0 -0.301,0 -0.453,0.262 l -5.547,7.687 v 0.602 h 4.949 v 1.347 c 0,0.602 0,0.79 -1.386,0.79 h -0.454 v 0.597 c 0.864,-0.035 1.915,-0.074 2.516,-0.074 0.637,0 1.688,0.039 2.547,0.074 v -0.597 h -0.449 c -1.387,0 -1.387,-0.188 -1.387,-0.79 v -1.347 z m -3.148,-6.715 v 6.113 h -4.426 z"
         style="fill:#000000;fill-opacity:1;fill-rule:nonzero;stroke:none"
         id="path58" /><path
         d="m 6.906,88.324 c -0.187,0.824 -0.261,0.977 -1.312,0.977 -0.262,0 -0.524,0 -0.524,0.449 0,0.188 0.114,0.301 0.301,0.301 0.637,0 1.348,-0.074 1.988,-0.074 0.825,0 1.61,0.074 2.399,0.074 0.113,0 0.414,0 0.414,-0.489 0,-0.261 -0.227,-0.261 -0.563,-0.261 -1.203,0 -1.203,-0.153 -1.203,-0.375 0,-0.301 1.016,-4.199 1.164,-4.801 0.301,0.711 0.977,1.539 2.211,1.539 2.778,0 5.778,-3.488 5.778,-7.016 0,-2.25 -1.387,-3.824 -3.188,-3.824 -1.199,0 -2.363,0.864 -3.152,1.801 -0.223,-1.313 -1.274,-1.801 -2.137,-1.801 -1.125,0 -1.574,0.938 -1.762,1.352 C 6.871,77 6.57,78.426 6.57,78.5 c 0,0.262 0.227,0.262 0.262,0.262 0.262,0 0.262,-0.035 0.414,-0.563 0.41,-1.687 0.899,-2.847 1.762,-2.847 0.414,0 0.75,0.187 0.75,1.086 0,0.562 -0.074,0.824 -0.188,1.238 z m 4.203,-10.386 c 0.149,-0.637 0.825,-1.313 1.235,-1.688 0.863,-0.711 1.539,-0.898 1.953,-0.898 0.937,0 1.535,0.824 1.535,2.25 0,1.421 -0.785,4.16 -1.238,5.062 -0.824,1.688 -1.949,2.473 -2.848,2.473 -1.574,0 -1.875,-1.989 -1.875,-2.137 0,-0.039 0,-0.074 0.074,-0.375 z"
         style="fill:#000000;fill-opacity:1;fill-rule:nonzero;stroke:none"
         id="path60" /><path
         d="m 26.289,72.488 h -0.562 c -0.039,0.375 -0.227,1.352 -0.45,1.5 -0.113,0.114 -1.386,0.114 -1.652,0.114 h -3.074 c 1.761,-1.54 2.363,-2.024 3.34,-2.813 1.234,-0.977 2.398,-2.023 2.398,-3.601 0,-2.024 -1.762,-3.262 -3.898,-3.262 -2.063,0 -3.489,1.465 -3.489,3 0,0.824 0.711,0.937 0.899,0.937 0.375,0 0.863,-0.301 0.863,-0.898 0,-0.301 -0.113,-0.903 -0.976,-0.903 0.527,-1.16 1.652,-1.535 2.437,-1.535 1.687,0 2.551,1.313 2.551,2.661 0,1.464 -1.051,2.589 -1.574,3.187 l -4.012,4.016 c -0.188,0.148 -0.188,0.187 -0.188,0.636 h 6.899 z"
         style="fill:#000000;fill-opacity:1;fill-rule:nonzero;stroke:none"
         id="path62" /></g></g></svg>
