<?xml version="1.0" encoding="utf-8" standalone="no"?>
<!DOCTYPE svg PUBLIC "-//W3C//DTD SVG 1.1//EN"
  "http://www.w3.org/Graphics/SVG/1.1/DTD/svg11.dtd">
<svg xmlns:xlink="http://www.w3.org/1999/xlink" width="416.981335pt" height="90.658332pt" viewBox="0 0 416.981335 90.658332" xmlns="http://www.w3.org/2000/svg" version="1.1">
 <metadata>
  <rdf:RDF xmlns:dc="http://purl.org/dc/elements/1.1/" xmlns:cc="http://creativecommons.org/ns#" xmlns:rdf="http://www.w3.org/1999/02/22-rdf-syntax-ns#">
   <cc:Work>
    <dc:type rdf:resource="http://purl.org/dc/dcmitype/StillImage"/>
    <dc:date>2023-05-24T16:36:38.489671</dc:date>
    <dc:format>image/svg+xml</dc:format>
    <dc:creator>
     <cc:Agent>
      <dc:title>Matplotlib v3.5.2, https://matplotlib.org/</dc:title>
     </cc:Agent>
    </dc:creator>
   </cc:Work>
  </rdf:RDF>
 </metadata>
 <defs>
  <style type="text/css">*{stroke-linejoin: round; stroke-linecap: butt}</style>
 </defs>
 <g id="figure_1">
  <g id="patch_1">
   <path d="M 0 90.658332 
L 416.981335 90.658332 
L 416.981335 0 
L 0 0 
z
" style="fill: #ffffff"/>
  </g>
  <g id="axes_1">
   <g id="patch_2">
    <path d="M 19.181335 67.602655 
L 409.781335 67.602655 
L 409.781335 17.202655 
L 19.181335 17.202655 
z
" style="fill: #ffffff"/>
   </g>
   <g id="matplotlib.axis_1">
    <g id="xtick_1">
     <g id="line2d_1">
      <defs>
       <path id="m1b9439d9aa" d="M 0 0 
L 0 3.5 
" style="stroke: #000000; stroke-width: 0.8"/>
      </defs>
      <g>
       <use xlink:href="#m1b9439d9aa" x="36.935881" y="67.602655" style="stroke: #000000; stroke-width: 0.8"/>
      </g>
     </g>
     <g id="text_1">
      <!-- 39950 -->
      <g transform="translate(24.482543 81.521154)scale(0.1 -0.1)">
       <defs>
        <path id="CMR17-33" d="M 1414 2157 
C 1984 2157 2234 1662 2234 1090 
C 2234 320 1824 25 1453 25 
C 1114 25 563 194 390 693 
C 422 680 454 680 486 680 
C 640 680 755 782 755 948 
C 755 1133 614 1216 486 1216 
C 378 1216 211 1165 211 926 
C 211 335 787 -128 1466 -128 
C 2176 -128 2720 430 2720 1085 
C 2720 1707 2208 2157 1600 2227 
C 2086 2328 2554 2756 2554 3329 
C 2554 3820 2048 4179 1472 4179 
C 890 4179 378 3829 378 3329 
C 378 3110 544 3072 627 3072 
C 762 3072 877 3155 877 3321 
C 877 3486 762 3569 627 3569 
C 602 3569 570 3569 544 3557 
C 730 3959 1235 4032 1459 4032 
C 1683 4032 2106 3925 2106 3320 
C 2106 3143 2080 2828 1862 2550 
C 1670 2304 1453 2304 1242 2284 
C 1210 2284 1062 2269 1037 2269 
C 992 2263 966 2257 966 2208 
C 966 2163 973 2157 1101 2157 
L 1414 2157 
z
" transform="scale(0.015625)"/>
        <path id="CMR17-39" d="M 2253 1864 
C 2253 464 1670 31 1190 31 
C 1043 31 685 31 538 294 
C 704 268 826 357 826 518 
C 826 692 685 749 595 749 
C 538 749 365 723 365 506 
C 365 71 742 -128 1203 -128 
C 1939 -128 2688 674 2688 2073 
C 2688 3817 1971 4179 1485 4179 
C 851 4179 243 3628 243 2778 
C 243 1991 762 1408 1414 1408 
C 1952 1408 2189 1903 2253 2112 
L 2253 1864 
z
M 1427 1510 
C 1254 1510 1011 1542 813 1922 
C 678 2169 678 2461 678 2771 
C 678 3146 678 3405 858 3684 
C 947 3817 1114 4032 1485 4032 
C 2240 4032 2240 2885 2240 2632 
C 2240 2182 2035 1510 1427 1510 
z
" transform="scale(0.015625)"/>
        <path id="CMR17-35" d="M 730 3692 
C 794 3666 1056 3584 1325 3584 
C 1920 3584 2246 3911 2432 4100 
C 2432 4157 2432 4192 2394 4192 
C 2387 4192 2374 4192 2323 4163 
C 2099 4058 1837 3973 1517 3973 
C 1325 3973 1037 3999 723 4139 
C 653 4171 640 4171 634 4171 
C 602 4171 595 4164 595 4037 
L 595 2203 
C 595 2089 595 2057 659 2057 
C 691 2057 704 2070 736 2114 
C 941 2401 1222 2522 1542 2522 
C 1766 2522 2246 2382 2246 1289 
C 2246 1085 2246 715 2054 421 
C 1894 159 1645 25 1370 25 
C 947 25 518 320 403 814 
C 429 807 480 795 506 795 
C 589 795 749 840 749 1038 
C 749 1210 627 1280 506 1280 
C 358 1280 262 1190 262 1011 
C 262 454 704 -128 1382 -128 
C 2042 -128 2669 440 2669 1264 
C 2669 2030 2170 2624 1549 2624 
C 1222 2624 947 2503 730 2274 
L 730 3692 
z
" transform="scale(0.015625)"/>
        <path id="CMR17-30" d="M 2688 2025 
C 2688 2416 2682 3080 2413 3591 
C 2176 4039 1798 4198 1466 4198 
C 1158 4198 768 4058 525 3597 
C 269 3118 243 2524 243 2025 
C 243 1661 250 1106 448 619 
C 723 -39 1216 -128 1466 -128 
C 1760 -128 2208 -7 2470 600 
C 2662 1042 2688 1559 2688 2025 
z
M 1466 -26 
C 1056 -26 813 325 723 812 
C 653 1188 653 1738 653 2096 
C 653 2588 653 2997 736 3387 
C 858 3929 1216 4096 1466 4096 
C 1728 4096 2067 3923 2189 3400 
C 2272 3036 2278 2607 2278 2096 
C 2278 1680 2278 1169 2202 792 
C 2067 95 1690 -26 1466 -26 
z
" transform="scale(0.015625)"/>
       </defs>
       <use xlink:href="#CMR17-33" transform="scale(0.996264)"/>
       <use xlink:href="#CMR17-39" transform="translate(45.690477 0)scale(0.996264)"/>
       <use xlink:href="#CMR17-39" transform="translate(91.380954 0)scale(0.996264)"/>
       <use xlink:href="#CMR17-35" transform="translate(137.071431 0)scale(0.996264)"/>
       <use xlink:href="#CMR17-30" transform="translate(182.761908 0)scale(0.996264)"/>
      </g>
     </g>
    </g>
    <g id="xtick_2">
     <g id="line2d_2">
      <g>
       <use xlink:href="#m1b9439d9aa" x="214.481335" y="67.602655" style="stroke: #000000; stroke-width: 0.8"/>
      </g>
     </g>
     <g id="text_2">
      <!-- 39975 -->
      <g transform="translate(202.027997 81.521154)scale(0.1 -0.1)">
       <defs>
        <path id="CMR17-37" d="M 2886 3941 
L 2886 4081 
L 1382 4081 
C 634 4081 621 4165 595 4288 
L 480 4288 
L 294 3094 
L 410 3094 
C 429 3215 474 3540 550 3661 
C 589 3712 1062 3712 1171 3712 
L 2579 3712 
L 1869 2661 
C 1395 1954 1069 999 1069 165 
C 1069 89 1069 -128 1299 -128 
C 1530 -128 1530 89 1530 171 
L 1530 465 
C 1530 1508 1709 2196 2003 2636 
L 2886 3941 
z
" transform="scale(0.015625)"/>
       </defs>
       <use xlink:href="#CMR17-33" transform="scale(0.996264)"/>
       <use xlink:href="#CMR17-39" transform="translate(45.690477 0)scale(0.996264)"/>
       <use xlink:href="#CMR17-39" transform="translate(91.380954 0)scale(0.996264)"/>
       <use xlink:href="#CMR17-37" transform="translate(137.071431 0)scale(0.996264)"/>
       <use xlink:href="#CMR17-35" transform="translate(182.761908 0)scale(0.996264)"/>
      </g>
     </g>
    </g>
    <g id="xtick_3">
     <g id="line2d_3">
      <g>
       <use xlink:href="#m1b9439d9aa" x="392.02679" y="67.602655" style="stroke: #000000; stroke-width: 0.8"/>
      </g>
     </g>
     <g id="text_3">
      <!-- 40000 -->
      <g transform="translate(379.573452 81.521154)scale(0.1 -0.1)">
       <defs>
        <path id="CMR17-34" d="M 2150 4122 
C 2150 4256 2144 4256 2029 4256 
L 128 1254 
L 128 1088 
L 1779 1088 
L 1779 457 
C 1779 224 1766 160 1318 160 
L 1197 160 
L 1197 0 
C 1402 0 1747 0 1965 0 
C 2182 0 2528 0 2733 0 
L 2733 160 
L 2611 160 
C 2163 160 2150 224 2150 457 
L 2150 1088 
L 2803 1088 
L 2803 1254 
L 2150 1254 
L 2150 4122 
z
M 1798 3703 
L 1798 1254 
L 256 1254 
L 1798 3703 
z
" transform="scale(0.015625)"/>
       </defs>
       <use xlink:href="#CMR17-34" transform="scale(0.996264)"/>
       <use xlink:href="#CMR17-30" transform="translate(45.690477 0)scale(0.996264)"/>
       <use xlink:href="#CMR17-30" transform="translate(91.380954 0)scale(0.996264)"/>
       <use xlink:href="#CMR17-30" transform="translate(137.071431 0)scale(0.996264)"/>
       <use xlink:href="#CMR17-30" transform="translate(182.761908 0)scale(0.996264)"/>
      </g>
     </g>
    </g>
   </g>
   <g id="matplotlib.axis_2">
    <g id="ytick_1">
     <g id="line2d_4">
      <defs>
       <path id="m9dc0431833" d="M 0 0 
L -3.5 0 
" style="stroke: #000000; stroke-width: 0.8"/>
      </defs>
      <g>
       <use xlink:href="#m9dc0431833" x="19.181335" y="65.457909" style="stroke: #000000; stroke-width: 0.8"/>
      </g>
     </g>
     <g id="text_4">
      <!-- $\mathdefault{0}$ -->
      <g transform="translate(7.2 68.917159)scale(0.1 -0.1)">
       <use xlink:href="#CMR17-30" transform="scale(0.996264)"/>
      </g>
     </g>
    </g>
    <g id="ytick_2">
     <g id="line2d_5">
      <g>
       <use xlink:href="#m9dc0431833" x="19.181335" y="18.861269" style="stroke: #000000; stroke-width: 0.8"/>
      </g>
     </g>
     <g id="text_5">
      <!-- $\mathdefault{5}$ -->
      <g transform="translate(7.2 22.320519)scale(0.1 -0.1)">
       <use xlink:href="#CMR17-35" transform="scale(0.996264)"/>
      </g>
     </g>
    </g>
    <g id="text_6">
     <!-- $\times\mathdefault{10^{−8}}\mathdefault{}$ -->
     <g transform="translate(19.181335 14.202655)scale(0.1 -0.1)">
      <defs>
       <path id="CMSY10-2" d="M 2490 1785 
L 1210 3059 
C 1133 3136 1120 3148 1069 3148 
C 1005 3148 941 3091 941 3020 
C 941 2976 954 2963 1024 2892 
L 2304 1606 
L 1024 320 
C 954 249 941 236 941 192 
C 941 121 1005 64 1069 64 
C 1120 64 1133 76 1210 153 
L 2483 1427 
L 3808 102 
C 3821 96 3866 64 3904 64 
C 3981 64 4032 121 4032 192 
C 4032 204 4032 230 4013 262 
C 4006 275 2989 1280 2669 1606 
L 3840 2777 
C 3872 2816 3968 2899 4000 2937 
C 4006 2950 4032 2976 4032 3020 
C 4032 3091 3981 3148 3904 3148 
C 3853 3148 3827 3123 3757 3052 
L 2490 1785 
z
" transform="scale(0.015625)"/>
       <path id="CMR17-31" d="M 1702 4058 
C 1702 4192 1696 4192 1606 4192 
C 1357 3916 979 3827 621 3827 
C 602 3827 570 3827 563 3808 
C 557 3795 557 3782 557 3648 
C 755 3648 1088 3686 1344 3839 
L 1344 461 
C 1344 236 1331 160 781 160 
L 589 160 
L 589 0 
C 896 0 1216 0 1523 0 
C 1830 0 2150 0 2458 0 
L 2458 160 
L 2266 160 
C 1715 160 1702 230 1702 458 
L 1702 4058 
z
" transform="scale(0.015625)"/>
       <path id="CMSY10-0" d="M 4218 1472 
C 4326 1472 4442 1472 4442 1600 
C 4442 1728 4326 1728 4218 1728 
L 755 1728 
C 646 1728 531 1728 531 1600 
C 531 1472 646 1472 755 1472 
L 4218 1472 
z
" transform="scale(0.015625)"/>
       <path id="CMR17-38" d="M 1741 2264 
C 2144 2467 2554 2773 2554 3263 
C 2554 3841 1990 4179 1472 4179 
C 890 4179 378 3759 378 3180 
C 378 3021 416 2747 666 2505 
C 730 2442 998 2251 1171 2130 
C 883 1983 211 1634 211 934 
C 211 279 838 -128 1459 -128 
C 2144 -128 2720 362 2720 1010 
C 2720 1590 2330 1857 2074 2029 
L 1741 2264 
z
M 902 2822 
C 851 2854 595 3051 595 3351 
C 595 3739 998 4032 1459 4032 
C 1965 4032 2336 3676 2336 3262 
C 2336 2669 1670 2331 1638 2331 
C 1632 2331 1626 2331 1574 2370 
L 902 2822 
z
M 2080 1519 
C 2176 1449 2483 1240 2483 851 
C 2483 381 2010 25 1472 25 
C 890 25 448 438 448 940 
C 448 1443 838 1862 1280 2060 
L 2080 1519 
z
" transform="scale(0.015625)"/>
      </defs>
      <use xlink:href="#CMSY10-2" transform="scale(0.996264)"/>
      <use xlink:href="#CMR17-31" transform="translate(77.487468 0)scale(0.996264)"/>
      <use xlink:href="#CMR17-30" transform="translate(123.177945 0)scale(0.996264)"/>
      <use xlink:href="#CMSY10-0" transform="translate(168.868422 36.153639)scale(0.697382)"/>
      <use xlink:href="#CMR17-38" transform="translate(223.109415 36.153639)scale(0.697382)"/>
     </g>
    </g>
   </g>
   <g id="line2d_6">
    <path d="M 36.935881 19.493565 
L 38.357666 26.853142 
L 38.713112 28.140599 
L 39.068559 30.195619 
L 39.424005 33.54244 
L 41.201237 56.721427 
L 41.556683 59.158773 
L 41.91213 60.777875 
L 42.267576 61.830049 
L 42.623022 62.508671 
L 43.333915 63.19063 
L 44.044808 63.392948 
L 44.755701 63.357539 
L 45.466593 63.109514 
L 46.888379 62.231079 
L 47.599271 61.567509 
L 47.954718 61.071377 
L 48.310164 60.376705 
L 48.66561 59.394586 
L 49.376503 56.388058 
L 50.087396 52.823104 
L 50.442842 51.598292 
L 50.798289 51.158776 
L 51.153735 51.591302 
L 51.864628 54.228595 
L 52.57552 56.826994 
L 52.930967 57.478834 
L 53.286413 57.603551 
L 53.641859 57.194882 
L 53.997306 56.265533 
L 55.419091 50.949595 
L 55.774538 50.781227 
L 56.129984 51.342972 
L 57.551769 55.230079 
L 58.973555 57.717693 
L 60.039894 59.587952 
L 61.106233 60.796676 
L 63.238911 63.007875 
L 63.949804 63.697608 
L 64.660696 64.006645 
L 65.371589 63.922007 
L 66.793375 63.320732 
L 67.859714 62.631317 
L 68.926053 61.809206 
L 69.636945 61.539524 
L 70.347838 61.336376 
L 70.703284 61.135309 
L 71.058731 60.79309 
L 71.769624 59.543697 
L 72.835963 57.213387 
L 74.257748 55.003579 
L 74.968641 52.421443 
L 76.390426 45.34779 
L 76.745873 44.5763 
L 77.101319 44.914367 
L 77.456765 46.443209 
L 78.167658 51.922859 
L 78.878551 57.526616 
L 79.589443 61.05506 
L 79.94489 62.061975 
L 80.300336 62.705265 
L 80.655782 63.07812 
L 81.011229 63.25245 
L 81.722121 63.22916 
L 82.433014 62.956462 
L 83.143907 62.417262 
L 84.921139 60.392856 
L 85.632031 60.182171 
L 86.342924 60.269436 
L 87.409263 60.770688 
L 88.475602 61.540034 
L 90.963727 63.659593 
L 91.674619 63.754719 
L 92.385512 63.406629 
L 93.096405 62.626241 
L 94.162744 61.283822 
L 94.51819 61.112793 
L 94.873637 61.163508 
L 95.584529 61.715831 
L 96.295422 62.236132 
L 96.650868 62.295126 
L 97.006315 62.152871 
L 97.361761 61.754761 
L 97.717207 61.040364 
L 98.4281 58.576573 
L 99.494439 53.995057 
L 100.916225 49.278044 
L 101.982564 44.609059 
L 102.33801 44.293057 
L 102.693456 45.116851 
L 103.048903 46.960392 
L 104.470688 56.772463 
L 105.181581 60.004215 
L 105.537027 61.05941 
L 105.892474 61.7576 
L 106.24792 62.144914 
L 106.603366 62.292819 
L 107.314259 62.217074 
L 108.025152 62.131771 
L 108.736045 62.253329 
L 109.802384 62.796282 
L 110.513276 63.106533 
L 111.224169 63.087255 
L 112.290508 62.608299 
L 113.001401 62.376772 
L 114.778633 62.337096 
L 115.489525 61.757896 
L 116.911311 59.830884 
L 117.266757 59.669599 
L 117.622203 59.781131 
L 118.333096 60.560091 
L 119.043989 61.329374 
L 119.754882 61.754323 
L 120.821221 62.161206 
L 121.176667 62.120834 
L 121.532113 61.861409 
L 121.88756 61.284582 
L 122.243006 60.273096 
L 122.598452 58.687677 
L 122.953899 56.392719 
L 123.664791 49.677628 
L 124.375684 42.525967 
L 124.731131 40.405573 
L 125.086577 39.962014 
L 125.442023 41.239945 
L 126.152916 47.043334 
L 126.863809 52.659301 
L 127.219255 54.333385 
L 127.574701 55.221748 
L 127.930148 55.5351 
L 128.64104 55.597068 
L 128.996487 55.822845 
L 130.418272 57.630253 
L 130.773719 57.682256 
L 131.129165 57.521858 
L 131.840058 56.82203 
L 133.261843 55.096042 
L 133.972736 53.28779 
L 134.683628 51.352043 
L 135.039075 50.992446 
L 135.394521 51.242155 
L 135.749968 52.029729 
L 136.46086 54.521719 
L 138.238092 61.51778 
L 138.948985 62.958214 
L 139.304431 63.319267 
L 140.015324 63.621589 
L 141.792556 63.786642 
L 142.858895 63.664541 
L 143.925234 63.189158 
L 145.347019 62.376438 
L 146.057912 61.589849 
L 146.768805 60.68852 
L 147.124251 60.432599 
L 147.479697 60.40149 
L 147.835144 60.582004 
L 148.901483 61.485962 
L 149.612375 61.716217 
L 150.323268 61.868272 
L 151.034161 62.248473 
L 152.455946 63.103839 
L 152.811393 63.185259 
L 153.166839 63.141264 
L 153.522285 62.93451 
L 154.233178 62.001469 
L 155.299517 60.313061 
L 155.654963 60.092397 
L 156.01041 60.095906 
L 157.076749 60.475776 
L 157.787642 60.379083 
L 159.564873 59.975628 
L 160.275766 59.453724 
L 160.986659 58.890669 
L 161.697551 58.61636 
L 162.052998 58.652945 
L 162.408444 58.871314 
L 162.763891 59.31167 
L 164.541122 62.563354 
L 165.252015 63.163324 
L 165.962908 63.469724 
L 166.6738 63.444734 
L 167.029247 63.238336 
L 167.384693 62.843151 
L 167.74014 62.185136 
L 168.095586 61.173285 
L 168.806479 57.862552 
L 169.872818 50.61409 
L 170.939157 43.54274 
L 171.294603 42.359478 
L 171.650049 42.441139 
L 172.005496 43.941889 
L 172.716388 50.048072 
L 173.427281 56.561615 
L 173.782728 58.894024 
L 174.138174 60.479606 
L 174.49362 61.422715 
L 174.849067 61.863555 
L 175.204513 61.905597 
L 175.559959 61.591191 
L 175.915406 60.917472 
L 176.626298 58.5451 
L 177.692637 54.428552 
L 178.048084 53.603518 
L 178.40353 53.150887 
L 178.758977 53.060408 
L 179.114423 53.367813 
L 179.469869 54.131617 
L 180.180762 56.869295 
L 180.891655 59.959315 
L 181.602547 61.952221 
L 181.957994 62.44457 
L 182.31344 62.681165 
L 183.024333 62.688851 
L 183.735226 62.371641 
L 184.446118 61.762629 
L 185.512457 60.576575 
L 185.867904 60.359524 
L 186.22335 60.304374 
L 187.289689 60.469613 
L 188.711474 60.296537 
L 190.488706 61.034681 
L 190.844153 60.864737 
L 191.199599 60.467909 
L 191.555045 59.768614 
L 191.910492 58.6906 
L 192.621384 55.449848 
L 193.332277 52.225061 
L 193.687723 51.510498 
L 194.04317 51.740994 
L 194.398616 52.90701 
L 195.109509 56.962062 
L 195.820402 60.924537 
L 196.531294 63.244321 
L 196.886741 63.829805 
L 197.242187 64.152811 
L 197.597633 64.284788 
L 197.95308 64.263411 
L 198.308526 64.098923 
L 199.019419 63.345661 
L 200.441204 61.216443 
L 202.218436 59.336613 
L 202.573882 58.56072 
L 203.284775 56.1865 
L 203.995668 53.775819 
L 204.351114 53.263777 
L 204.70656 53.467386 
L 205.062007 54.33567 
L 206.483792 59.248293 
L 206.839239 59.772618 
L 207.194685 59.842948 
L 207.550131 59.420279 
L 207.905578 58.481764 
L 208.61647 55.345882 
L 209.327363 52.270665 
L 209.682809 51.658292 
L 210.038256 51.956145 
L 210.393702 53.094391 
L 211.815488 59.65714 
L 212.170934 60.540948 
L 212.52638 61.052149 
L 213.237273 61.451391 
L 213.948166 61.856606 
L 215.725397 63.529613 
L 216.080844 63.567285 
L 216.43629 63.469003 
L 217.147183 62.910236 
L 217.858076 61.823801 
L 218.568968 59.979956 
L 219.990754 55.016233 
L 220.3462 54.505493 
L 220.701646 54.608529 
L 221.057093 55.270038 
L 223.189771 61.380674 
L 223.900664 62.355463 
L 224.611556 62.857795 
L 226.744235 63.983736 
L 227.455127 64.191444 
L 228.16602 64.187299 
L 228.876913 63.930398 
L 229.587805 63.449296 
L 230.298698 62.628162 
L 231.009591 61.065814 
L 232.431376 56.851015 
L 232.786823 56.497697 
L 233.142269 56.648805 
L 233.497715 57.228007 
L 235.630393 62.17188 
L 236.341286 63.0889 
L 237.052179 63.495884 
L 237.407625 63.498326 
L 237.763072 63.359285 
L 238.473964 62.667665 
L 239.184857 61.441424 
L 239.540303 60.535009 
L 239.89575 59.298976 
L 240.606642 55.556738 
L 242.028428 46.71621 
L 242.739321 43.818062 
L 243.80566 40.496963 
L 244.161106 38.79257 
L 245.582891 29.966232 
L 245.938338 30.018342 
L 246.293784 31.392547 
L 247.360123 37.328833 
L 248.071016 40.053543 
L 248.426462 42.01682 
L 249.137355 48.395457 
L 250.203694 59.198413 
L 250.55914 61.580262 
L 250.914587 63.19849 
L 251.270033 64.198184 
L 251.625479 64.766191 
L 251.980926 65.06728 
L 252.691818 65.28778 
L 253.758158 65.255757 
L 254.46905 64.954247 
L 254.824497 64.603487 
L 255.179943 64.028128 
L 255.535389 63.157928 
L 256.246282 60.393762 
L 256.957175 56.404014 
L 258.734407 44.551579 
L 259.089853 43.721666 
L 259.445299 43.927044 
L 260.156192 46.196623 
L 260.867085 48.155437 
L 261.577977 48.990695 
L 262.28887 49.536976 
L 262.644316 49.543066 
L 262.999763 49.237819 
L 264.066102 47.770026 
L 264.776995 47.256998 
L 265.132441 46.735098 
L 265.843334 45.159903 
L 266.19878 44.832061 
L 266.554226 45.395764 
L 266.909673 47.037389 
L 267.620565 52.705796 
L 268.331458 58.594093 
L 269.042351 62.348108 
L 269.397797 63.415245 
L 269.753244 64.109599 
L 270.464136 64.821203 
L 271.175029 65.073908 
L 272.241368 65.103055 
L 272.952261 64.904002 
L 273.307707 64.6709 
L 273.663153 64.290101 
L 274.0186 63.71586 
L 274.729492 61.923043 
L 277.217617 54.224849 
L 277.573063 54.059246 
L 277.92851 54.525175 
L 278.283956 55.577213 
L 279.705741 61.171112 
L 280.061188 61.995443 
L 280.416634 62.528587 
L 280.772081 62.836738 
L 281.127527 62.979051 
L 281.83842 62.925469 
L 282.904759 62.633893 
L 283.260205 62.690101 
L 283.971098 63.105194 
L 284.68199 63.568542 
L 285.392883 63.66991 
L 286.103776 63.352653 
L 287.525561 62.298605 
L 288.236454 61.404729 
L 288.947347 59.910823 
L 290.369132 56.463853 
L 291.080025 55.34738 
L 291.435471 55.176102 
L 292.50181 55.343183 
L 292.857257 55.098699 
L 293.212703 54.599819 
L 293.923596 52.939267 
L 294.279042 51.662425 
L 294.989935 47.743769 
L 295.700827 43.443445 
L 296.056274 42.487155 
L 296.41172 42.941847 
L 296.767167 44.81519 
L 298.188952 56.524106 
L 298.544398 58.271633 
L 298.899845 59.373206 
L 299.255291 59.993112 
L 299.610737 60.305996 
L 300.32163 60.550456 
L 301.032523 60.767095 
L 301.743416 61.24909 
L 303.165201 62.64127 
L 303.520647 62.78019 
L 303.876094 62.777725 
L 304.23154 62.636614 
L 304.942433 62.024265 
L 306.364218 60.439791 
L 306.719664 60.322987 
L 307.075111 60.454033 
L 307.786004 61.327182 
L 308.496896 62.355061 
L 309.207789 62.974814 
L 309.918682 63.24559 
L 310.629574 63.258028 
L 310.985021 63.09943 
L 311.340467 62.774309 
L 312.05136 61.539538 
L 313.117699 59.149754 
L 313.473145 58.727243 
L 313.828592 58.611095 
L 315.250377 58.9675 
L 315.96127 58.434295 
L 317.738502 56.602452 
L 318.093948 56.471985 
L 318.449394 56.498952 
L 318.804841 56.745963 
L 319.160287 57.262672 
L 320.937519 61.01285 
L 321.292965 61.318235 
L 321.648411 61.464088 
L 322.003858 61.483045 
L 322.71475 61.188424 
L 325.202875 59.046992 
L 326.62466 56.886707 
L 327.335553 56.555771 
L 328.046446 56.315932 
L 328.401892 55.965869 
L 328.757339 55.321672 
L 329.468231 53.142501 
L 329.823678 51.983076 
L 330.179124 51.221714 
L 330.53457 51.151386 
L 330.890017 51.870509 
L 331.600909 54.963201 
L 332.311802 58.246057 
L 333.022695 60.38791 
L 333.378141 61.013308 
L 333.733588 61.384111 
L 334.089034 61.528593 
L 334.44448 61.4791 
L 336.221712 60.64714 
L 336.932605 60.554628 
L 337.288051 60.35437 
L 337.643497 59.950805 
L 337.998944 59.291488 
L 338.709836 57.318214 
L 339.420729 55.376516 
L 339.776176 54.76722 
L 340.131622 54.4508 
L 340.487068 54.41898 
L 340.842515 54.703853 
L 341.197961 55.372323 
L 341.908854 57.858218 
L 342.975193 62.21048 
L 343.686085 63.880896 
L 344.396978 64.606419 
L 345.107871 64.874516 
L 346.17421 64.915829 
L 347.240549 64.639554 
L 347.951442 64.22178 
L 348.662334 63.363222 
L 349.373227 61.779975 
L 350.439566 58.927798 
L 350.795013 58.39066 
L 351.150459 58.219845 
L 351.505905 58.381172 
L 352.216798 59.262626 
L 353.283137 60.637787 
L 353.638583 60.881913 
L 353.99403 60.949074 
L 354.349476 60.830461 
L 354.704922 60.523149 
L 355.060369 59.997305 
L 355.415815 59.188362 
L 356.126708 56.541386 
L 357.548493 49.856011 
L 357.90394 48.668065 
L 358.259386 47.928765 
L 358.614832 47.870081 
L 358.970279 48.676877 
L 359.325725 50.342826 
L 360.747511 59.471996 
L 361.458403 61.994316 
L 362.169296 63.287749 
L 362.880189 64.040323 
L 363.591081 64.410952 
L 364.301974 64.399832 
L 365.012867 63.967853 
L 365.723759 63.110411 
L 366.434652 62.168876 
L 366.790099 61.850707 
L 367.145545 61.691576 
L 367.856438 61.724816 
L 368.56733 61.755219 
L 368.922777 61.595668 
L 369.278223 61.234675 
L 369.633669 60.608531 
L 369.989116 59.639509 
L 370.344562 58.195983 
L 370.700008 56.050488 
L 371.055455 52.8966 
L 371.766348 42.788517 
L 372.832687 24.972473 
L 373.188133 22.434651 
L 373.543579 22.865478 
L 373.899026 26.035706 
L 376.031704 55.180618 
L 376.742597 59.750561 
L 377.098043 61.100187 
L 377.808936 62.62685 
L 378.164382 63.030722 
L 378.519828 63.259767 
L 378.875275 63.308378 
L 379.230721 63.141795 
L 379.586167 62.699046 
L 379.941614 61.900602 
L 380.29706 60.678522 
L 381.007953 57.076859 
L 381.718845 53.313298 
L 382.074292 52.090826 
L 382.429738 51.501615 
L 382.785185 51.448622 
L 383.851524 52.180754 
L 384.20697 52.042151 
L 384.562416 51.481376 
L 385.984202 47.866649 
L 386.339648 48.391328 
L 386.695094 49.879158 
L 388.472326 60.234004 
L 389.183219 62.121766 
L 389.894112 63.366916 
L 390.605004 64.245808 
L 391.315897 64.752919 
L 392.02679 64.979791 
L 392.02679 64.979791 
" clip-path="url(#p91e2feac2a)" style="fill: none; stroke: #1f77b4; stroke-width: 1.2; stroke-linecap: square"/>
   </g>
   <g id="patch_3">
    <path d="M 19.181335 67.602655 
L 19.181335 17.202655 
" style="fill: none; stroke: #000000; stroke-width: 0.8; stroke-linejoin: miter; stroke-linecap: square"/>
   </g>
   <g id="patch_4">
    <path d="M 409.781335 67.602655 
L 409.781335 17.202655 
" style="fill: none; stroke: #000000; stroke-width: 0.8; stroke-linejoin: miter; stroke-linecap: square"/>
   </g>
   <g id="patch_5">
    <path d="M 19.181335 67.602655 
L 409.781335 67.602655 
" style="fill: none; stroke: #000000; stroke-width: 0.8; stroke-linejoin: miter; stroke-linecap: square"/>
   </g>
   <g id="patch_6">
    <path d="M 19.181335 17.202655 
L 409.781335 17.202655 
" style="fill: none; stroke: #000000; stroke-width: 0.8; stroke-linejoin: miter; stroke-linecap: square"/>
   </g>
  </g>
 </g>
 <defs>
  <clipPath id="p91e2feac2a">
   <rect x="19.181335" y="17.202655" width="390.6" height="50.4"/>
  </clipPath>
 </defs>
</svg>
